<svg width="40" height="41" viewBox="0 0 40 41" fill="none" xmlns="http://www.w3.org/2000/svg">
<rect x="0.000976562" y="0.5" width="40" height="40" fill="#005BFF"/>
<path fill-rule="evenodd" clip-rule="evenodd" d="M40.001 26.9V40.5H7.50098V34.8947V23.5V20.5249C9.98549 17.455 13.8824 14.8932 18.6078 13.5628C21.9772 12.6143 25.3164 12.4201 28.3062 12.8662L37.1676 23.5L39.2241 25.9677L40.001 26.9Z" fill="#F91155"/>
<path fill-rule="evenodd" clip-rule="evenodd" d="M8.60276 23.9809C9.46774 27.0534 15.3309 29.113 21.8756 27.2705C28.4379 25.423 32.3344 20.6157 31.4694 17.5433C30.6044 14.4708 24.7559 12.4118 18.2112 14.2544C11.6664 16.0969 7.73777 20.9085 8.60276 23.9809ZM2.88489 25.5907C0.987613 18.8515 7.13215 11.2308 16.6088 8.56285C26.0853 5.89492 35.3234 9.19446 37.2182 15.9248C39.113 22.6552 32.9532 30.2897 23.4767 32.9576C14 35.6255 4.78217 32.3299 2.88489 25.5907Z" fill="white"/>
</svg>
